<svg xmlns="http://www.w3.org/2000/svg" width="1200" height="675" viewBox="0 0 1200 675" role="img" aria-labelledby="title desc">
  <title id="title">Admin operations console</title><desc id="desc">Fictional administrative dashboard for enrollment and content operations</desc>
  <rect width="1200" height="675" rx="18" fill="#F5F6FA"/><rect width="218" height="675" rx="18" fill="#171A2F"/><rect x="200" width="18" height="675" fill="#171A2F"/>
  <g transform="translate(28 24)" font-family="Arial,sans-serif"><rect width="38" height="38" rx="11" fill="#6658DC"/><path d="M11 23c8-1 8-10 16-11m-15 5c4 0 7 3 7 7m0 4V12" fill="none" stroke="#fff" stroke-width="2.5" stroke-linecap="round"/><text x="50" y="25" fill="#fff" font-size="17" font-weight="700">CodeBloom</text></g>
  <g transform="translate(18 92)" font-family="Arial,sans-serif" font-size="12"><rect width="182" height="40" rx="9" fill="#6658DC"/><text x="44" y="25" fill="#fff" font-weight="700">Dashboard</text><circle cx="23" cy="20" r="6" fill="#77E6C5"/><text x="44" y="72" fill="#AEB2C5">Learning</text><text x="44" y="110" fill="#AEB2C5">Courses &amp; batches</text><text x="44" y="148" fill="#AEB2C5">Students &amp; teachers</text><text x="44" y="186" fill="#AEB2C5">Enrollments</text><text x="44" y="230" fill="#AEB2C5">Bookings</text><text x="44" y="268" fill="#AEB2C5">Showcases</text><text x="44" y="306" fill="#AEB2C5">Inquiries</text><text x="44" y="350" fill="#AEB2C5">Content</text><text x="44" y="388" fill="#AEB2C5">Pages &amp; SEO</text><text x="44" y="426" fill="#AEB2C5">Articles &amp; gallery</text></g>
  <g transform="translate(250 30)" font-family="Arial,sans-serif"><text y="28" fill="#242842" font-size="25" font-weight="800">Operations overview</text><text y="52" fill="#777C94" font-size="12">Monitor activity and move requests through the workflow.</text><rect x="802" y="1" width="112" height="38" rx="19" fill="#fff" stroke="#E0E3EC"/><text x="858" y="25" text-anchor="middle" fill="#4D526A" font-size="11" font-weight="700">Admin user</text></g>
  <g transform="translate(250 108)" font-family="Arial,sans-serif">
    <g><rect width="216" height="112" rx="14" fill="#fff" stroke="#E2E5EE"/><circle cx="36" cy="36" r="18" fill="#ECE9FF"/><text x="36" y="41" text-anchor="middle" fill="#6658DC" font-size="15" font-weight="700">E</text><text x="22" y="74" fill="#777C94" font-size="10" font-weight="700">NEW ENROLLMENTS</text><text x="22" y="100" fill="#242842" font-size="25" font-weight="800">18</text><text x="190" y="98" text-anchor="end" fill="#238A6B" font-size="10">+12%</text></g>
    <g transform="translate(232)"><rect width="216" height="112" rx="14" fill="#fff" stroke="#E2E5EE"/><circle cx="36" cy="36" r="18" fill="#E1F8F0"/><text x="36" y="41" text-anchor="middle" fill="#238A6B" font-size="15" font-weight="700">B</text><text x="22" y="74" fill="#777C94" font-size="10" font-weight="700">BOOKING REQUESTS</text><text x="22" y="100" fill="#242842" font-size="25" font-weight="800">9</text><text x="190" y="98" text-anchor="end" fill="#A26714" font-size="10">4 pending</text></g>
    <g transform="translate(464)"><rect width="216" height="112" rx="14" fill="#fff" stroke="#E2E5EE"/><circle cx="36" cy="36" r="18" fill="#E5F4FF"/><text x="36" y="41" text-anchor="middle" fill="#277DB8" font-size="15" font-weight="700">C</text><text x="22" y="74" fill="#777C94" font-size="10" font-weight="700">ACTIVE CLASSES</text><text x="22" y="100" fill="#242842" font-size="25" font-weight="800">24</text><text x="190" y="98" text-anchor="end" fill="#277DB8" font-size="10">6 today</text></g>
    <g transform="translate(696)"><rect width="216" height="112" rx="14" fill="#28225C"/><circle cx="36" cy="36" r="18" fill="#77E6C5" opacity=".2"/><text x="36" y="41" text-anchor="middle" fill="#77E6C5" font-size="15" font-weight="700">V</text><text x="22" y="74" fill="#CFCBFF" font-size="10" font-weight="700">VERIFIED BALLOTS</text><text x="22" y="100" fill="#fff" font-size="25" font-weight="800">146</text><text x="190" y="98" text-anchor="end" fill="#77E6C5" font-size="10">Live event</text></g>
  </g>
  <g transform="translate(250 244)" font-family="Arial,sans-serif"><rect width="598" height="374" rx="15" fill="#fff" stroke="#E2E5EE"/><text x="20" y="36" fill="#242842" font-size="17" font-weight="700">Recent enrollment requests</text><text x="566" y="36" text-anchor="end" fill="#6658DC" font-size="11" font-weight="700">VIEW ALL</text>
    <rect x="20" y="58" width="558" height="34" rx="7" fill="#F4F5F9"/><g fill="#858A9E" font-size="9" font-weight="700"><text x="32" y="79">REFERENCE</text><text x="128" y="79">STUDENT</text><text x="277" y="79">PROGRAM</text><text x="428" y="79">STATUS</text></g>
    <g font-size="11"><g transform="translate(0 103)"><text x="32" y="20" fill="#555A71">CB-1048</text><text x="128" y="20" fill="#242842" font-weight="700">Jamie Lee</text><text x="277" y="20" fill="#555A71">Creative Coding</text><rect x="420" y="3" width="92" height="26" rx="13" fill="#FFF3DC"/><text x="466" y="20" text-anchor="middle" fill="#A26714" font-size="9" font-weight="700">REVIEW</text><path d="M20 43h558" stroke="#ECEEF4"/></g><g transform="translate(0 157)"><text x="32" y="20" fill="#555A71">CB-1047</text><text x="128" y="20" fill="#242842" font-weight="700">Sam Patel</text><text x="277" y="20" fill="#555A71">Web Makers</text><rect x="420" y="3" width="92" height="26" rx="13" fill="#E1F8F0"/><text x="466" y="20" text-anchor="middle" fill="#238A6B" font-size="9" font-weight="700">CONFIRMED</text><path d="M20 43h558" stroke="#ECEEF4"/></g><g transform="translate(0 211)"><text x="32" y="20" fill="#555A71">CB-1046</text><text x="128" y="20" fill="#242842" font-weight="700">Taylor Cruz</text><text x="277" y="20" fill="#555A71">Applied AI</text><rect x="420" y="3" width="92" height="26" rx="13" fill="#E5F4FF"/><text x="466" y="20" text-anchor="middle" fill="#277DB8" font-size="9" font-weight="700">CONTACTED</text><path d="M20 43h558" stroke="#ECEEF4"/></g><g transform="translate(0 265)"><text x="32" y="20" fill="#555A71">CB-1045</text><text x="128" y="20" fill="#242842" font-weight="700">Morgan Ray</text><text x="277" y="20" fill="#555A71">Robotics Lab</text><rect x="420" y="3" width="92" height="26" rx="13" fill="#E1F8F0"/><text x="466" y="20" text-anchor="middle" fill="#238A6B" font-size="9" font-weight="700">CONFIRMED</text></g></g>
    <rect x="20" y="331" width="123" height="28" rx="14" fill="#6658DC"/><text x="81" y="350" text-anchor="middle" fill="#fff" font-size="9" font-weight="700">EXPORT LIST</text>
    <g transform="translate(618)"><rect width="294" height="177" rx="15" fill="#fff" stroke="#E2E5EE"/><text x="18" y="34" fill="#242842" font-size="16" font-weight="700">Publishing status</text><text x="18" y="66" fill="#777C94" font-size="11">Courses</text><rect x="95" y="58" width="165" height="8" rx="4" fill="#E8EAF1"/><rect x="95" y="58" width="143" height="8" rx="4" fill="#6658DC"/><text x="273" y="67" text-anchor="end" fill="#555A71" font-size="10">12 / 14</text><text x="18" y="100" fill="#777C94" font-size="11">Articles</text><rect x="95" y="92" width="165" height="8" rx="4" fill="#E8EAF1"/><rect x="95" y="92" width="119" height="8" rx="4" fill="#27B78A"/><text x="273" y="101" text-anchor="end" fill="#555A71" font-size="10">8 / 11</text><text x="18" y="134" fill="#777C94" font-size="11">Events</text><rect x="95" y="126" width="165" height="8" rx="4" fill="#E8EAF1"/><rect x="95" y="126" width="82" height="8" rx="4" fill="#4FAAFF"/><text x="273" y="135" text-anchor="end" fill="#555A71" font-size="10">4 / 8</text></g>
    <g transform="translate(618 197)"><rect width="294" height="177" rx="15" fill="#28225C"/><text x="18" y="34" fill="#fff" font-size="16" font-weight="700">Action required</text><circle cx="26" cy="72" r="8" fill="#FFC75F"/><text x="44" y="76" fill="#E4E5F2" font-size="11">4 bookings need follow-up</text><circle cx="26" cy="105" r="8" fill="#77E6C5"/><text x="44" y="109" fill="#E4E5F2" font-size="11">2 articles await review</text><circle cx="26" cy="138" r="8" fill="#FF8196"/><text x="44" y="142" fill="#E4E5F2" font-size="11">3 ballots need moderation</text></g>
  </g><text x="1165" y="651" text-anchor="end" font-family="Arial,sans-serif" font-size="10" fill="#9CA0B4">FICTIONAL RECONSTRUCTION · NO CLIENT DATA</text>
</svg>
